<svg width="122" height="48" viewBox="0 0 122 48" fill="none" xmlns="http://www.w3.org/2000/svg">
<g filter="url(#filter0_dd)">
<path fill-rule="evenodd" clip-rule="evenodd" d="M19.5197 0.057373H19.3509L4 1.71895V30.4945L19.3509 39.8382L34.7018 30.4945V1.71895L19.5197 0.057373ZM81.0183 1.62185H79.0876V14.7311H81.0183V1.62185ZM44.8619 1.63264V6.76843C45.6131 5.9864 46.6386 5.5436 47.7105 5.53843C48.6823 5.47908 49.6329 5.84495 50.3253 6.54479C51.0177 7.24462 51.3866 8.21244 51.3399 9.20685V14.7634H49.367V9.46579C49.4231 8.94897 49.2754 8.43059 48.9566 8.02553C48.6377 7.62047 48.174 7.36218 47.6683 7.3079H47.3518C46.3456 7.36979 45.4321 7.9295 44.9041 8.80764V14.7634H42.8995V1.63264H44.8619ZM81.0183 30.4837H79.2775V29.0595C78.4828 30.1353 77.23 30.7538 75.9119 30.7211C73.4751 30.5528 71.5825 28.4822 71.5825 25.9845C71.5825 23.4867 73.4751 21.4162 75.9119 21.2479C77.1195 21.2052 78.2818 21.7203 79.0771 22.6505V17.3205H81.0183V30.4837ZM51.0656 29.0595C51.263 29.0515 51.4583 29.0152 51.6459 28.9516V30.3866C51.2482 30.5404 50.826 30.6172 50.4009 30.6132C49.6482 30.6769 48.9394 30.2429 48.639 29.5342C47.7036 30.31 46.5302 30.7227 45.3261 30.6995C43.733 30.6995 42.256 29.804 42.256 27.9482C42.256 25.65 44.3661 24.9379 46.1702 24.9379C46.9402 24.9505 47.707 25.0408 48.4596 25.2076V24.884C48.4596 23.805 47.6578 22.9742 46.1491 22.9742C45.0585 22.9764 43.9804 23.2116 42.9839 23.6647V21.8305C44.0678 21.451 45.204 21.2506 46.3495 21.2371C48.8394 21.2371 50.3693 22.4455 50.3693 25.1753V28.4121C50.3546 28.5668 50.401 28.721 50.4981 28.8406C50.5951 28.9601 50.7349 29.035 50.8862 29.0487H51.0656V29.0595ZM44.2711 27.8403C44.298 28.229 44.4761 28.5905 44.7655 28.844C45.055 29.0974 45.4317 29.2217 45.8115 29.189H45.9275C46.8819 29.1906 47.7973 28.8022 48.4702 28.11V26.5779C47.842 26.4414 47.2026 26.3655 46.5605 26.3513C45.5055 26.3513 44.2817 26.7074 44.2817 27.8403H44.2711ZM60.0229 21.9384C59.1962 21.4632 58.2596 21.2246 57.3115 21.2479H56.9422C55.7332 21.2873 54.5891 21.8166 53.7619 22.7192C52.9347 23.6218 52.4923 24.8236 52.5321 26.06V26.5024C52.6957 29.0004 54.805 30.8921 57.2482 30.7318C58.2519 30.7555 59.2477 30.5452 60.1601 30.1168V28.2718C59.3769 28.7215 58.4945 28.9591 57.5963 28.9624C56.5199 29.0288 55.4963 28.4793 54.9385 27.5356C54.3806 26.5918 54.3806 25.4095 54.9385 24.4658C55.4963 23.522 56.5199 22.9725 57.5963 23.039C58.461 23.0357 59.3066 23.2989 60.0229 23.7942V21.9384ZM70.1514 29.0595C70.3488 29.0515 70.5441 29.0152 70.7317 28.9516V30.3866C70.334 30.5404 69.9118 30.6172 69.4867 30.6132C68.734 30.6769 68.0252 30.2429 67.7248 29.5342C66.7894 30.31 65.616 30.7227 64.4119 30.6995C62.8188 30.6995 61.3417 29.804 61.3417 27.9482C61.3417 25.65 63.4518 24.9379 65.256 24.9379C66.0259 24.9505 66.7928 25.0408 67.5454 25.2076V24.884C67.5454 23.805 66.7436 22.9742 65.2349 22.9742C64.1443 22.9764 63.0662 23.2116 62.0697 23.6647V21.8305C63.1536 21.451 64.2897 21.2506 65.4353 21.2371C67.9252 21.2371 69.455 22.4455 69.455 25.1753V28.4121C69.4404 28.5668 69.4868 28.721 69.5838 28.8406C69.6809 28.9601 69.8207 29.035 69.972 29.0487H70.1514V29.0595ZM63.855 28.8481C63.5632 28.5943 63.3837 28.2311 63.3569 27.8403H63.378C63.378 26.7074 64.5385 26.3513 65.6569 26.3513C66.299 26.3655 66.9383 26.4414 67.5665 26.5779V28.11C66.8937 28.8022 65.9782 29.1906 65.0239 29.189H64.9078C64.5263 29.2247 64.1469 29.1019 63.855 28.8481ZM73.3271 25.9305C73.3271 24.2859 74.6308 22.9526 76.239 22.9526L76.2601 23.0066C77.4742 23.0066 78.5742 23.7382 79.0665 24.8732V27.0311C78.5856 28.1871 77.4673 28.9296 76.239 28.9084C74.6308 28.9084 73.3271 27.5752 73.3271 25.9305ZM87.3486 21.2479C90.8408 21.2479 92.0541 24.1395 91.4844 26.7397H84.922C85.1436 28.3582 86.6839 29.0163 88.2876 29.0163C89.2509 29.0196 90.2027 28.8021 91.0729 28.3797V30.1061C90.0736 30.5421 88.9939 30.7519 87.9078 30.7211C85.2385 30.7211 82.8963 29.189 82.8963 25.9521C82.8362 24.7502 83.2482 23.5736 84.0408 22.6841C84.8334 21.7945 85.9408 21.2658 87.1165 21.2155H87.3486V21.2479ZM84.8693 25.1753C84.9704 23.8237 86.1216 22.8104 87.4436 22.9095H87.4858C88.1064 22.8531 88.7196 23.08 89.1612 23.5295C89.6028 23.979 89.8275 24.6051 89.7752 25.24H84.8693V25.1753ZM93.489 30.4621V21.4961H95.2298V22.575C95.9777 21.7197 97.041 21.2229 98.1628 21.2047C99.2951 21.1328 100.371 21.7163 100.948 22.7153C101.741 21.8335 102.848 21.3161 104.018 21.2803C104.952 21.2327 105.859 21.6011 106.507 22.2901C107.154 22.9792 107.478 23.9213 107.394 24.8732V30.4837H105.39V24.9271C105.437 24.4734 105.306 24.0191 105.024 23.6647C104.743 23.3104 104.336 23.0852 103.892 23.039H103.617C102.751 23.0941 101.953 23.536 101.433 24.2474V30.4837H99.4289V24.9271C99.4728 24.47 99.3357 24.0139 99.0481 23.6611C98.7606 23.3082 98.3467 23.088 97.8991 23.0497H97.6881C96.7466 23.1344 95.8915 23.6449 95.3564 24.4416V30.5161H93.5312L93.489 30.4621ZM117.977 21.4745H115.972L113.324 28.2718L110.306 21.4853H108.196L112.417 30.5484L112.237 31.0016C111.72 32.3611 111.003 33.0516 110.053 33.0516C109.75 33.0548 109.447 33.0112 109.156 32.9221V34.6161C109.536 34.7125 109.926 34.7632 110.317 34.7671C111.646 34.7671 112.902 34.0226 113.851 31.6813L117.977 21.4745ZM56.689 5.78658V2.54974L54.7266 3.01369V5.73264H53.144V7.49132H54.7899V11.9905C54.7231 12.817 55.0244 13.6301 55.61 14.2038C56.1955 14.7775 57.0028 15.0505 57.8073 14.9468C58.5996 14.9535 59.3875 14.8259 60.139 14.5692V12.8429C59.5727 13.0781 58.9672 13.199 58.356 13.199C57.2165 13.199 56.689 12.8105 56.689 11.6237V7.5129H59.8541V5.78658H56.689ZM62.3862 14.7526V5.75421H64.1376V6.83316C64.8811 5.97655 65.9403 5.476 67.0601 5.45211C68.1624 5.38099 69.2146 5.93142 69.8032 6.88711C70.5958 6.00534 71.7028 5.48794 72.8734 5.45211C73.8138 5.41462 74.7233 5.79859 75.364 6.50353C76.0046 7.20846 76.3126 8.16418 76.2073 9.12053V14.7418H74.2028V9.18527C74.2499 8.73151 74.1184 8.27721 73.8373 7.92287C73.5561 7.56853 73.1485 7.34334 72.7046 7.29711H72.4619C71.5957 7.35228 70.797 7.7942 70.278 8.50553V14.7418H68.2734V9.18527C68.3206 8.73151 68.1891 8.27721 67.9079 7.92287C67.6268 7.56853 67.2191 7.34334 66.7752 7.29711H66.5326C65.5911 7.38181 64.736 7.89229 64.2009 8.68895V14.7634H62.3862V14.7526ZM32.6972 29.3033L32.7078 29.2968L32.6972 29.3184V29.3033ZM32.6972 17.3205V29.3033L19.3509 37.4321L6.00459 29.3184V17.5147L19.2876 25.6068V27.0311L10.1826 21.5284V22.9418L19.3404 28.5632V30.0629L10.1931 24.4955V25.9521L19.3509 31.5734L28.5826 25.9197V19.8129L32.6972 17.3205ZM32.7078 15.7776L29.0362 17.9355L27.3482 19.0145L19.3087 14.0837V15.4971L26.156 19.7266L26.0083 19.8237L24.9532 20.4063L19.2876 16.9537V18.3995L23.761 21.1184L22.706 21.8413L19.3298 19.7913V21.2047L21.5454 22.5426L19.2982 23.9021L6.11009 15.864L19.3087 7.72869L32.7078 15.7776ZM19.2876 6.27211L32.7078 14.3534V3.56395L19.3615 2.12895L6.01514 3.56395V14.3534L19.2876 6.27211Z" fill="#81B3D2"/>
</g>
<defs>
<filter id="filter0_dd" x="0" y="0.057373" width="121.977" height="47.7808" filterUnits="userSpaceOnUse" color-interpolation-filters="sRGB">
<feFlood flood-opacity="0" result="BackgroundImageFix"/>
<feColorMatrix in="SourceAlpha" type="matrix" values="0 0 0 0 0 0 0 0 0 0 0 0 0 0 0 0 0 0 127 0"/>
<feOffset dy="4"/>
<feGaussianBlur stdDeviation="2"/>
<feColorMatrix type="matrix" values="0 0 0 0 0 0 0 0 0 0 0 0 0 0 0 0 0 0 0.25 0"/>
<feBlend mode="normal" in2="BackgroundImageFix" result="effect1_dropShadow"/>
<feColorMatrix in="SourceAlpha" type="matrix" values="0 0 0 0 0 0 0 0 0 0 0 0 0 0 0 0 0 0 127 0"/>
<feOffset dy="4"/>
<feGaussianBlur stdDeviation="2"/>
<feColorMatrix type="matrix" values="0 0 0 0 0 0 0 0 0 0 0 0 0 0 0 0 0 0 0.25 0"/>
<feBlend mode="normal" in2="effect1_dropShadow" result="effect2_dropShadow"/>
<feBlend mode="normal" in="SourceGraphic" in2="effect2_dropShadow" result="shape"/>
</filter>
</defs>
</svg>
